name ./resultDataOpenSim/trcMotMarkerGrf/sub10/grf-04-04.mot
datacolumns 19
datarows 17
range 1.56000000 1.62400000
endheader

                time	     ground_force_vx	     ground_force_vy	     ground_force_vz	     ground_force_px	     ground_force_py	     ground_force_pz	   l_ground_force_vx	   l_ground_force_vy	   l_ground_force_vz	   l_ground_force_px	   l_ground_force_py	   l_ground_force_pz	     ground_torque_x	     ground_torque_y	     ground_torque_z	   l_ground_torque_x	   l_ground_torque_y	   l_ground_torque_z	
          1.56000000	        -14.94532558	        388.35262618	        -19.47511027	          0.84454402	          0.00000000	          0.05482683	          0.00000000	          0.00000000	          0.00000000	          0.00000000	          0.00000000	          0.00000000	          0.00000000	          1.48843098	          0.00000000	          0.00000000	          0.00000000	          0.00000000	
          1.56400000	        -13.78230500	        384.00802310	        -18.24294573	          0.84605406	          0.00000000	          0.05475291	          0.00000000	          0.00000000	          0.00000000	          0.00000000	          0.00000000	          0.00000000	          0.00000000	          1.55498728	          0.00000000	          0.00000000	          0.00000000	          0.00000000	
          1.56800000	        -13.39163784	        380.25244920	        -17.56844146	          0.84770847	          0.00000000	          0.05465230	          0.00000000	          0.00000000	          0.00000000	          0.00000000	          0.00000000	          0.00000000	          0.00000000	          1.65431914	          0.00000000	          0.00000000	          0.00000000	          0.00000000	
          1.57200000	        -13.54769258	        377.01909820	        -17.44247198	          0.84946245	          0.00000000	          0.05453421	          0.00000000	          0.00000000	          0.00000000	          0.00000000	          0.00000000	          0.00000000	          0.00000000	          1.78128860	          0.00000000	          0.00000000	          0.00000000	          0.00000000	
          1.57600000	        -13.90355029	        374.25044204	        -17.75753796	          0.85125027	          0.00000000	          0.05440531	          0.00000000	          0.00000000	          0.00000000	          0.00000000	          0.00000000	          0.00000000	          0.00000000	          1.92306896	          0.00000000	          0.00000000	          0.00000000	          0.00000000	
          1.58000000	        -14.08491353	        371.91292718	        -18.32934751	          0.85299650	          0.00000000	          0.05426421	          0.00000000	          0.00000000	          0.00000000	          0.00000000	          0.00000000	          0.00000000	          0.00000000	          2.06337405	          0.00000000	          0.00000000	          0.00000000	          0.00000000	
          1.58400000	        -13.79198026	        369.99350568	        -18.93467919	          0.85463358	          0.00000000	          0.05411082	          0.00000000	          0.00000000	          0.00000000	          0.00000000	          0.00000000	          0.00000000	          0.00000000	          2.18754076	          0.00000000	          0.00000000	          0.00000000	          0.00000000	
          1.58800000	        -12.87327705	        368.49207517	        -19.35999349	          0.85612087	          0.00000000	          0.05394716	          0.00000000	          0.00000000	          0.00000000	          0.00000000	          0.00000000	          0.00000000	          0.00000000	          2.28638854	          0.00000000	          0.00000000	          0.00000000	          0.00000000	
          1.59200000	        -11.35439199	        367.42296586	        -19.44825068	          0.85743101	          0.00000000	          0.05377909	          0.00000000	          0.00000000	          0.00000000	          0.00000000	          0.00000000	          0.00000000	          0.00000000	          2.35767562	          0.00000000	          0.00000000	          0.00000000	          0.00000000	
          1.59600000	         -9.41942506	        366.81600117	        -19.13311429	          0.85857936	          0.00000000	          0.05360503	          0.00000000	          0.00000000	          0.00000000	          0.00000000	          0.00000000	          0.00000000	          0.00000000	          2.40536252	          0.00000000	          0.00000000	          0.00000000	          0.00000000	
          1.60000000	         -7.35020675	        366.70601414	        -18.45200742	          0.85962159	          0.00000000	          0.05341455	          0.00000000	          0.00000000	          0.00000000	          0.00000000	          0.00000000	          0.00000000	          0.00000000	          2.43778941	          0.00000000	          0.00000000	          0.00000000	          0.00000000	
          1.60400000	         -5.43998926	        367.12353740	        -17.53305821	          0.86060258	          0.00000000	          0.05319966	          0.00000000	          0.00000000	          0.00000000	          0.00000000	          0.00000000	          0.00000000	          0.00000000	          2.46576658	          0.00000000	          0.00000000	          0.00000000	          0.00000000	
          1.60800000	         -3.90862251	        368.10226477	        -16.56019298	          0.86156549	          0.00000000	          0.05296315	          0.00000000	          0.00000000	          0.00000000	          0.00000000	          0.00000000	          0.00000000	          0.00000000	          2.50082977	          0.00000000	          0.00000000	          0.00000000	          0.00000000	
          1.61200000	         -2.84676323	        369.68421684	        -15.72782017	          0.86253527	          0.00000000	          0.05270741	          0.00000000	          0.00000000	          0.00000000	          0.00000000	          0.00000000	          0.00000000	          0.00000000	          2.55337366	          0.00000000	          0.00000000	          0.00000000	          0.00000000	
          1.61600000	         -2.19960645	        371.90305252	        -15.19986527	          0.86351264	          0.00000000	          0.05243547	          0.00000000	          0.00000000	          0.00000000	          0.00000000	          0.00000000	          0.00000000	          0.00000000	          2.63056326	          0.00000000	          0.00000000	          0.00000000	          0.00000000	
          1.62000000	         -1.78414826	        374.76307392	        -15.08366223	          0.86448583	          0.00000000	          0.05214936	          0.00000000	          0.00000000	          0.00000000	          0.00000000	          0.00000000	          0.00000000	          0.00000000	          2.73456174	          0.00000000	          0.00000000	          0.00000000	          0.00000000	
          1.62400000	         -1.33903332	        378.23058758	        -15.41741465	          0.86542014	          0.00000000	          0.05185505	          0.00000000	          0.00000000	          0.00000000	          0.00000000	          0.00000000	          0.00000000	          0.00000000	          2.86198970	          0.00000000	          0.00000000	          0.00000000	          0.00000000	
